<svg xmlns="http://www.w3.org/2000/svg" xmlns:xlink="http://www.w3.org/1999/xlink" width="240" zoomAndPan="magnify" viewBox="0 0 180 30.000001" height="40" preserveAspectRatio="xMidYMid meet" version="1.0"><defs><clipPath id="d2dcacdbcd"><path d="M 3 1 L 36 1 L 36 28.730469 L 3 28.730469 Z M 3 1 " clip-rule="nonzero"/></clipPath><clipPath id="e23145768a"><path d="M 44 0.421875 L 177 0.421875 L 177 28.730469 L 44 28.730469 Z M 44 0.421875 " clip-rule="nonzero"/></clipPath></defs><g clip-path="url(#d2dcacdbcd)"><path fill="#f5faff" d="M 23.496094 1.058594 C 17.914062 1.058594 12.089844 2.320312 6.210938 3.957031 C 5.464844 4.109375 4.738281 4.601562 4.351562 5.207031 C 3.996094 5.777344 3.867188 6.351562 3.757812 6.953125 C 3.1875 10.167969 3.257812 13.324219 3.375 16.820312 C 3.402344 17.621094 3.519531 18.570312 3.890625 19.148438 C 4.28125 19.730469 4.945312 20.101562 5.742188 20.222656 C 6.757812 20.371094 7.777344 20.5 8.800781 20.601562 L 8.574219 26.914062 C 8.539062 27.417969 8.785156 27.835938 9.089844 28.074219 C 9.359375 28.28125 9.664062 28.375 9.972656 28.398438 C 10.59375 28.445312 11.324219 28.179688 11.6875 27.484375 C 13.273438 24.421875 14.265625 23.066406 16.25 21.03125 C 21.421875 21.15625 25.9375 20.867188 31.050781 20.488281 C 32.859375 20.441406 34.097656 18.957031 34.425781 17.773438 C 35.40625 14.699219 35.558594 10.910156 35.664062 7.078125 C 35.707031 5.558594 35.183594 4.066406 34.253906 3.277344 C 33.371094 2.558594 32.300781 2.296875 31.324219 2.03125 C 28.601562 1.410156 25.878906 1.078125 23.496094 1.058594 Z M 30.933594 3.460938 C 31.914062 3.730469 32.777344 3.988281 33.324219 4.433594 C 34.234375 5.40625 34.203125 6.050781 34.191406 7.101562 C 34.089844 10.816406 33.910156 14.425781 33.074219 17.160156 C 32.714844 18.179688 32.089844 18.90625 30.902344 19.015625 C 25.695312 19.402344 21.175781 19.699219 15.941406 19.550781 C 15.726562 19.542969 15.539062 19.617188 15.386719 19.769531 C 13.1875 22.003906 12.0625 23.550781 10.386719 26.792969 C 10.347656 26.867188 10.265625 26.914062 10.160156 26.921875 C 10.089844 26.917969 10.0625 26.863281 10.058594 26.8125 L 10.285156 19.96875 C 10.296875 19.597656 9.996094 19.246094 9.628906 19.207031 C 8.40625 19.089844 7.1875 18.9375 5.972656 18.753906 C 5.449219 18.675781 5.253906 18.53125 5.109375 18.316406 C 4.859375 17.71875 4.867188 17.347656 4.847656 16.769531 C 4.730469 13.304688 4.671875 10.277344 5.203125 7.261719 C 5.25 6.816406 5.417969 6.363281 5.59375 5.980469 C 5.886719 5.523438 6.332031 5.453125 6.78125 5.328125 C 12.53125 3.734375 18.15625 2.542969 23.449219 2.539062 C 26.046875 2.632812 28.769531 2.894531 30.933594 3.460938 Z M 11.074219 9.335938 C 10.285156 10.289062 10.363281 11.582031 10.972656 12.449219 C 11.292969 12.902344 11.792969 13.265625 12.398438 13.351562 C 13.1875 13.414062 13.6875 13.09375 14.226562 12.726562 C 15.203125 11.871094 15.304688 10.382812 14.558594 9.308594 C 14.183594 8.757812 13.578125 8.429688 12.957031 8.40625 C 12.109375 8.414062 11.535156 8.796875 11.074219 9.332031 Z M 19.640625 8.554688 C 18.851562 8.582031 18.214844 9.128906 17.824219 9.722656 C 17.378906 10.398438 17.121094 11.246094 17.480469 12.078125 C 18.175781 13.675781 20.570312 13.65625 21.527344 12.03125 C 21.96875 11.285156 21.855469 10.433594 21.527344 9.816406 C 21.199219 9.199219 20.707031 8.695312 19.988281 8.578125 C 19.875 8.5625 19.757812 8.554688 19.640625 8.554688 Z M 26.597656 8.707031 C 26.351562 8.699219 26.097656 8.722656 25.863281 8.789062 C 24.914062 9.042969 24.105469 10.023438 24.230469 11.28125 C 24.292969 11.914062 24.582031 12.53125 25.101562 12.957031 C 25.625 13.382812 26.382812 13.570312 27.183594 13.40625 C 28.105469 13.21875 28.671875 12.472656 28.863281 11.753906 C 29.054688 11.039062 29.003906 10.304688 28.5625 9.710938 C 28.332031 9.398438 28.042969 9.15625 27.695312 8.980469 C 27.351562 8.804688 26.984375 8.710938 26.597656 8.707031 Z M 12.894531 9.882812 C 13.070312 9.886719 13.210938 9.941406 13.355469 10.148438 C 13.675781 10.617188 13.585938 11.324219 13.261719 11.605469 C 12.9375 11.886719 12.738281 11.914062 12.59375 11.894531 C 12.453125 11.875 12.308594 11.777344 12.179688 11.59375 C 11.933594 11.246094 11.863281 10.683594 12.1875 10.28125 C 12.359375 10.050781 12.671875 9.90625 12.894531 9.882812 Z M 19.746094 10.046875 C 19.773438 10.050781 20.082031 10.230469 20.230469 10.507812 C 20.375 10.785156 20.402344 11.042969 20.261719 11.28125 C 19.847656 11.988281 18.960938 11.796875 18.824219 11.488281 C 18.773438 11.371094 18.8125 10.898438 19.054688 10.53125 C 19.296875 10.164062 19.605469 10.023438 19.746094 10.046875 Z M 27.378906 10.589844 C 27.425781 10.648438 27.535156 11.054688 27.449219 11.375 C 27.363281 11.695312 27.226562 11.894531 26.886719 11.964844 C 26.449219 12.054688 26.207031 11.964844 26.023438 11.8125 C 25.839844 11.664062 25.714844 11.414062 25.6875 11.144531 C 25.625 10.476562 25.863281 10.320312 26.242188 10.21875 C 26.683594 10.109375 27.179688 10.300781 27.378906 10.589844 Z M 27.378906 10.589844 " fill-opacity="1" fill-rule="nonzero"/></g><g clip-path="url(#e23145768a)"><path fill="#f5faff" d="M 44.917969 4.046875 C 44.929688 3.859375 44.996094 3.691406 45.125 3.539062 C 45.257812 3.382812 45.425781 3.308594 45.628906 3.316406 L 50.5625 3.316406 C 50.730469 3.316406 50.902344 3.382812 51.078125 3.523438 C 51.257812 3.652344 51.34375 3.828125 51.34375 4.046875 L 51.34375 11.953125 L 59.597656 11.953125 L 59.597656 4.046875 C 59.597656 3.847656 59.664062 3.675781 59.804688 3.53125 C 59.941406 3.386719 60.121094 3.3125 60.34375 3.3125 L 65.210938 3.3125 C 65.429688 3.3125 65.625 3.371094 65.789062 3.480469 C 65.957031 3.59375 66.039062 3.769531 66.039062 4.015625 L 66.039062 27.351562 C 66.039062 27.59375 65.96875 27.777344 65.824219 27.898438 C 65.679688 28.023438 65.492188 28.082031 65.257812 28.082031 L 60.34375 28.082031 C 60.121094 28.082031 59.941406 28.023438 59.804688 27.898438 C 59.664062 27.777344 59.597656 27.59375 59.597656 27.351562 L 59.597656 17.875 L 51.34375 17.875 L 51.34375 27.351562 C 51.34375 27.582031 51.269531 27.761719 51.121094 27.890625 C 50.96875 28.019531 50.765625 28.082031 50.511719 28.082031 L 45.628906 28.082031 C 45.164062 28.082031 44.929688 27.867188 44.917969 27.433594 Z M 90.351562 27.800781 C 90.207031 27.921875 90.054688 28 89.894531 28.035156 C 89.742188 28.066406 89.589844 28.082031 89.4375 28.085938 L 86.929688 28.085938 C 86.730469 28.085938 86.558594 28.046875 86.414062 27.976562 C 86.269531 27.902344 86.148438 27.804688 86.050781 27.683594 C 85.945312 27.554688 85.863281 27.417969 85.800781 27.265625 C 85.734375 27.109375 85.679688 26.949219 85.632812 26.78125 L 85.121094 24.648438 C 84.953125 24.992188 84.714844 25.382812 84.398438 25.824219 C 84.054688 26.292969 83.652344 26.703125 83.195312 27.058594 C 82.707031 27.441406 82.125 27.765625 81.449219 28.027344 C 80.773438 28.285156 80 28.417969 79.125 28.417969 C 77.863281 28.417969 76.71875 28.171875 75.6875 27.683594 C 74.667969 27.207031 73.789062 26.539062 73.054688 25.683594 C 72.332031 24.835938 71.769531 23.851562 71.371094 22.71875 C 70.972656 21.59375 70.773438 20.386719 70.773438 19.109375 L 70.773438 8.183594 C 70.773438 7.761719 70.863281 7.441406 71.046875 7.226562 C 71.230469 7.007812 71.519531 6.902344 71.917969 6.902344 L 75.753906 6.902344 C 76.230469 6.902344 76.554688 6.980469 76.734375 7.140625 C 76.910156 7.304688 77 7.617188 77 8.085938 L 77 18.941406 C 77 19.421875 77.109375 19.875 77.324219 20.304688 C 77.539062 20.730469 77.824219 21.109375 78.179688 21.4375 C 78.53125 21.765625 78.933594 22.023438 79.382812 22.210938 C 79.832031 22.402344 80.289062 22.496094 80.753906 22.496094 C 81.152344 22.496094 81.5625 22.402344 81.988281 22.210938 C 82.421875 22.019531 82.8125 21.765625 83.167969 21.453125 C 83.527344 21.136719 83.824219 20.765625 84.058594 20.335938 C 84.289062 19.90625 84.40625 19.453125 84.40625 18.976562 L 84.40625 8.132812 C 84.40625 7.945312 84.441406 7.757812 84.515625 7.566406 C 84.585938 7.378906 84.695312 7.234375 84.835938 7.132812 C 84.980469 7.046875 85.117188 6.984375 85.246094 6.949219 C 85.371094 6.917969 85.519531 6.898438 85.683594 6.898438 L 89.4375 6.898438 C 89.914062 6.898438 90.257812 7.019531 90.46875 7.25 C 90.675781 7.484375 90.78125 7.796875 90.78125 8.183594 L 90.78125 26.851562 C 90.78125 27.058594 90.734375 27.253906 90.640625 27.433594 C 90.546875 27.609375 90.417969 27.75 90.25 27.851562 Z M 109.628906 25.5 C 109.332031 25.796875 109 26.121094 108.640625 26.464844 C 108.28125 26.808594 107.886719 27.132812 107.457031 27.433594 C 107.019531 27.734375 106.554688 27.984375 106.0625 28.175781 C 105.542969 28.375 105.003906 28.472656 104.449219 28.46875 C 102.945312 28.46875 101.558594 28.183594 100.289062 27.617188 C 99.039062 27.066406 97.949219 26.289062 97.019531 25.289062 C 96.105469 24.304688 95.390625 23.148438 94.875 21.8125 C 94.359375 20.476562 94.105469 19.042969 94.105469 17.507812 C 94.105469 15.960938 94.359375 14.527344 94.875 13.195312 C 95.390625 11.867188 96.105469 10.710938 97.019531 9.726562 C 97.949219 8.726562 99.039062 7.957031 100.289062 7.410156 C 101.558594 6.847656 102.945312 6.566406 104.449219 6.566406 C 105.058594 6.566406 105.613281 6.65625 106.117188 6.835938 C 106.605469 7.003906 107.066406 7.230469 107.496094 7.519531 C 107.910156 7.796875 108.292969 8.109375 108.640625 8.460938 C 108.992188 8.808594 109.320312 9.152344 109.628906 9.484375 L 109.628906 1.863281 C 109.628906 1.507812 109.738281 1.207031 109.953125 0.964844 C 110.171875 0.71875 110.492188 0.597656 110.925781 0.597656 L 114.660156 0.597656 C 114.804688 0.597656 114.957031 0.625 115.117188 0.6875 C 115.277344 0.75 115.425781 0.835938 115.558594 0.945312 C 115.691406 1.058594 115.800781 1.191406 115.882812 1.347656 C 115.964844 1.503906 116.007812 1.675781 116.007812 1.863281 L 116.007812 26.800781 C 116.007812 27.65625 115.558594 28.085938 114.660156 28.085938 L 111.40625 28.085938 C 111.1875 28.085938 111.015625 28.054688 110.894531 28 C 110.769531 27.945312 110.667969 27.863281 110.585938 27.757812 C 110.492188 27.636719 110.417969 27.503906 110.359375 27.359375 C 110.28125 27.171875 110.199219 26.984375 110.113281 26.800781 Z M 100.082031 17.507812 C 100.078125 18.214844 100.191406 18.902344 100.421875 19.570312 C 100.648438 20.207031 100.972656 20.761719 101.394531 21.226562 C 101.824219 21.703125 102.332031 22.074219 102.914062 22.335938 C 103.503906 22.609375 104.160156 22.746094 104.882812 22.746094 C 105.589844 22.746094 106.257812 22.617188 106.882812 22.363281 C 107.496094 22.117188 108.039062 21.761719 108.515625 21.304688 C 108.992188 20.84375 109.363281 20.3125 109.640625 19.710938 C 109.921875 19.097656 110.078125 18.441406 110.113281 17.742188 L 110.113281 17.507812 C 110.113281 16.804688 109.980469 16.125 109.714844 15.472656 C 109.453125 14.835938 109.085938 14.269531 108.609375 13.773438 C 108.132812 13.277344 107.578125 12.890625 106.949219 12.613281 C 106.289062 12.324219 105.601562 12.183594 104.882812 12.1875 C 104.160156 12.1875 103.503906 12.328125 102.914062 12.613281 C 102.320312 12.898438 101.816406 13.285156 101.394531 13.773438 C 100.960938 14.277344 100.640625 14.84375 100.421875 15.472656 C 100.191406 16.132812 100.078125 16.8125 100.082031 17.507812 Z M 135.289062 25.5 C 134.988281 25.796875 134.660156 26.121094 134.296875 26.464844 C 133.9375 26.808594 133.542969 27.132812 133.113281 27.433594 C 132.675781 27.734375 132.210938 27.984375 131.71875 28.175781 C 131.199219 28.375 130.660156 28.472656 130.105469 28.46875 C 128.601562 28.46875 127.214844 28.183594 125.945312 27.617188 C 124.695312 27.066406 123.605469 26.289062 122.675781 25.289062 C 121.761719 24.304688 121.046875 23.148438 120.53125 21.8125 C 120.019531 20.476562 119.761719 19.042969 119.761719 17.507812 C 119.761719 15.960938 120.019531 14.527344 120.53125 13.195312 C 121.046875 11.867188 121.761719 10.710938 122.675781 9.726562 C 123.605469 8.726562 124.695312 7.953125 125.945312 7.410156 C 127.214844 6.847656 128.601562 6.566406 130.105469 6.566406 C 130.714844 6.566406 131.269531 6.65625 131.773438 6.835938 C 132.261719 7.003906 132.722656 7.230469 133.152344 7.519531 C 133.566406 7.796875 133.949219 8.109375 134.296875 8.460938 C 134.648438 8.808594 134.976562 9.152344 135.285156 9.484375 L 135.285156 1.863281 C 135.285156 1.507812 135.394531 1.207031 135.609375 0.964844 C 135.828125 0.71875 136.148438 0.597656 136.582031 0.597656 L 140.316406 0.597656 C 140.460938 0.597656 140.613281 0.625 140.773438 0.6875 C 140.9375 0.75 141.082031 0.835938 141.214844 0.945312 C 141.347656 1.058594 141.457031 1.191406 141.539062 1.347656 C 141.621094 1.503906 141.664062 1.675781 141.664062 1.863281 L 141.664062 26.800781 C 141.664062 27.65625 141.214844 28.085938 140.316406 28.085938 L 137.0625 28.085938 C 136.84375 28.085938 136.671875 28.054688 136.550781 28 C 136.425781 27.945312 136.324219 27.863281 136.242188 27.757812 C 136.148438 27.636719 136.074219 27.503906 136.019531 27.359375 C 135.9375 27.171875 135.855469 26.984375 135.769531 26.800781 L 135.285156 25.5 Z M 125.738281 17.507812 C 125.730469 18.214844 125.847656 18.902344 126.078125 19.570312 C 126.304688 20.207031 126.628906 20.761719 127.050781 21.226562 C 127.480469 21.703125 127.988281 22.074219 128.570312 22.335938 C 129.164062 22.609375 129.816406 22.746094 130.539062 22.746094 C 131.246094 22.746094 131.914062 22.617188 132.539062 22.363281 C 133.152344 22.117188 133.699219 21.761719 134.175781 21.304688 C 134.648438 20.84375 135.019531 20.3125 135.292969 19.710938 C 135.578125 19.097656 135.734375 18.441406 135.769531 17.742188 L 135.769531 17.507812 C 135.769531 16.804688 135.636719 16.125 135.371094 15.472656 C 135.109375 14.835938 134.742188 14.269531 134.265625 13.773438 C 133.789062 13.277344 133.234375 12.890625 132.605469 12.613281 C 131.945312 12.324219 131.257812 12.183594 130.539062 12.1875 C 129.816406 12.1875 129.160156 12.328125 128.570312 12.613281 C 127.976562 12.898438 127.472656 13.285156 127.050781 13.773438 C 126.617188 14.277344 126.296875 14.84375 126.078125 15.472656 C 125.847656 16.132812 125.734375 16.8125 125.738281 17.507812 Z M 146.082031 1.878906 C 146.082031 1.523438 146.167969 1.222656 146.347656 0.980469 C 146.523438 0.734375 146.828125 0.613281 147.261719 0.613281 L 151.328125 0.613281 C 151.441406 0.613281 151.554688 0.644531 151.675781 0.703125 C 151.804688 0.769531 151.917969 0.855469 152.019531 0.964844 C 152.125 1.074219 152.210938 1.207031 152.285156 1.363281 C 152.355469 1.519531 152.390625 1.691406 152.390625 1.878906 L 152.390625 26.800781 C 152.390625 27.222656 152.273438 27.542969 152.035156 27.757812 C 151.796875 27.976562 151.488281 28.082031 151.113281 28.082031 L 147.261719 28.082031 C 146.828125 28.082031 146.523438 27.976562 146.347656 27.757812 C 146.167969 27.542969 146.082031 27.222656 146.082031 26.800781 Z M 174.046875 25.546875 C 173.074219 26.449219 171.980469 27.152344 170.757812 27.65625 C 169.519531 28.171875 168.230469 28.425781 166.890625 28.417969 C 165.371094 28.417969 163.9375 28.140625 162.589844 27.582031 C 161.257812 27.042969 160.070312 26.273438 159.035156 25.273438 C 158 24.273438 157.191406 23.113281 156.609375 21.796875 C 156.011719 20.460938 155.714844 19.011719 155.714844 17.441406 C 155.714844 16.464844 155.832031 15.515625 156.070312 14.597656 C 156.300781 13.695312 156.640625 12.839844 157.082031 12.019531 C 157.523438 11.21875 158.054688 10.480469 158.675781 9.8125 C 159.300781 9.140625 160 8.566406 160.777344 8.085938 C 161.570312 7.597656 162.410156 7.226562 163.300781 6.96875 C 164.242188 6.695312 165.199219 6.5625 166.175781 6.566406 C 167.09375 6.566406 167.984375 6.691406 168.847656 6.933594 C 169.710938 7.179688 170.523438 7.523438 171.28125 7.96875 C 172.039062 8.414062 172.734375 8.945312 173.363281 9.570312 C 173.988281 10.183594 174.53125 10.867188 174.992188 11.613281 C 175.449219 12.355469 175.800781 13.144531 176.046875 13.980469 C 176.296875 14.820312 176.421875 15.683594 176.421875 16.574219 C 176.421875 17.152344 176.414062 17.625 176.394531 17.992188 C 176.378906 18.359375 176.292969 18.652344 176.136719 18.867188 C 175.984375 19.085938 175.726562 19.234375 175.367188 19.316406 C 175.007812 19.402344 174.476562 19.445312 173.78125 19.445312 L 161.824219 19.445312 C 161.933594 20.15625 162.160156 20.75 162.496094 21.230469 C 162.8125 21.6875 163.203125 22.066406 163.667969 22.371094 C 164.109375 22.65625 164.582031 22.855469 165.078125 22.980469 C 165.542969 23.097656 166.011719 23.160156 166.488281 23.164062 C 166.890625 23.164062 167.296875 23.121094 167.71875 23.039062 C 168.132812 22.957031 168.539062 22.84375 168.941406 22.703125 C 169.3125 22.574219 169.671875 22.414062 170.019531 22.21875 C 170.34375 22.039062 170.609375 21.84375 170.808594 21.644531 C 170.984375 21.5 171.136719 21.390625 171.265625 21.320312 C 171.390625 21.246094 171.527344 21.210938 171.671875 21.210938 C 171.816406 21.210938 171.960938 21.261719 172.113281 21.363281 C 172.292969 21.488281 172.464844 21.632812 172.617188 21.796875 L 174.378906 23.796875 C 174.5 23.941406 174.578125 24.074219 174.609375 24.1875 C 174.644531 24.304688 174.660156 24.425781 174.660156 24.546875 C 174.660156 24.769531 174.597656 24.960938 174.476562 25.121094 C 174.355469 25.285156 174.210938 25.425781 174.046875 25.546875 Z M 166.058594 11.652344 C 165.625 11.652344 165.210938 11.742188 164.804688 11.914062 C 164.394531 12.089844 164.015625 12.320312 163.667969 12.605469 C 163.3125 12.894531 162.996094 13.222656 162.710938 13.589844 C 162.441406 13.9375 162.210938 14.308594 162.023438 14.707031 L 170.507812 14.707031 C 170.285156 14.289062 170.035156 13.886719 169.753906 13.503906 C 169.484375 13.140625 169.175781 12.820312 168.824219 12.539062 C 168.460938 12.253906 168.0625 12.035156 167.628906 11.886719 C 167.179688 11.730469 166.65625 11.652344 166.058594 11.652344 Z M 166.058594 11.652344 " fill-opacity="1" fill-rule="nonzero"/></g></svg>